<svg width="396" height="461" viewBox="0 0 396 461" fill="none" xmlns="http://www.w3.org/2000/svg">
<path d="M174.91 0C172.71 0 170.31 0.29 168.21 0.93C163.81 2.19 160.51 4.6 159.01 7.34C157.41 10.08 156.61 13.7 159.71 20.77V20.89L183.61 81.55C188.61 80.25 193.61 79.25 198.81 78.55L184.71 4.19V3.99C184.51 2.66 183.91 1.86 180.81 0.820002C179.21 0.290002 177.11 0 174.91 0ZM140.21 93.25C110.11 93.15 77.4101 109.05 51.3101 133.05C24.4301 157.95 5.00006 191.25 1.54006 221.45C-3.92994 269.45 4.96005 331.25 31.6001 379.35C58.2101 427.45 101.11 461.85 167.21 459.65C205.71 458.25 241.91 430.65 267.91 392.45C293.91 354.25 309.01 305.85 306.61 267.45C304.21 228.95 283.41 185.55 252.81 151.95C222.21 118.35 182.31 94.85 143.21 93.35H143.11C142.11 93.35 141.21 93.25 140.21 93.25ZM214.81 95.45C213.61 95.45 212.51 95.55 211.31 95.55C231.41 106.85 250.01 122.15 266.11 139.85C299.11 176.05 321.91 222.25 324.61 266.25C327.41 310.25 310.91 361.25 282.81 402.55C266.61 426.45 246.21 447.25 223.01 460.85C228.41 461.05 233.81 460.95 239.31 460.35C292.51 454.95 331.61 432.75 357.61 399.45C383.51 366.15 396.41 321.35 394.91 270.15C393.31 216.85 362.91 167.65 321.51 135.15C290.51 110.75 253.61 96.15 219.11 95.45H214.81Z" fill="black"/>
</svg>
